<svg width="34" height="34" viewBox="0 0 34 34" fill="none" xmlns="http://www.w3.org/2000/svg">
<path d="M2 2.39474H7.45455L11.1091 21.0199C11.2338 21.6603 11.5753 22.2356 12.0739 22.645C12.5725 23.0544 13.1964 23.2719 13.8364 23.2594H27.0909C27.7309 23.2719 28.3548 23.0544 28.8533 22.645C29.3519 22.2356 29.6935 21.6603 29.8182 21.0199L32 9.34963H8.81818M14.2727 30.2143C14.2727 30.9825 13.6622 31.6053 12.9091 31.6053C12.156 31.6053 11.5455 30.9825 11.5455 30.2143C11.5455 29.4461 12.156 28.8233 12.9091 28.8233C13.6622 28.8233 14.2727 29.4461 14.2727 30.2143ZM29.2727 30.2143C29.2727 30.9825 28.6622 31.6053 27.9091 31.6053C27.156 31.6053 26.5455 30.9825 26.5455 30.2143C26.5455 29.4461 27.156 28.8233 27.9091 28.8233C28.6622 28.8233 29.2727 29.4461 29.2727 30.2143Z" stroke="white" stroke-width="4" stroke-linecap="round" stroke-linejoin="round"/>
</svg>
